<?xml version="1.0" standalone="no"?>
<!DOCTYPE svg PUBLIC "-//W3C//DTD SVG 20010904//EN"
 "http://www.w3.org/TR/2001/REC-SVG-20010904/DTD/svg10.dtd">
<svg version="1.0" xmlns="http://www.w3.org/2000/svg"
 width="512.000000pt" height="512.000000pt" viewBox="0 0 512.000000 512.000000"
 preserveAspectRatio="xMidYMid meet">

<g transform="translate(0.000000,512.000000) scale(0.100000,-0.100000)"
   fill="#5c0000" stroke="none">
<path d="M2255 5026 c-37 -17 -70 -52 -84 -89 -6 -16 -11 -79 -11 -141 l0
-112 -96 -23 c-112 -26 -248 -71 -354 -116 l-75 -32 -71 97 c-57 78 -79 100
-113 113 -82 33 -95 27 -337 -147 -226 -164 -241 -177 -261 -224 -25 -61 -11
-109 66 -214 l68 -94 -34 -39 c-66 -76 -181 -234 -232 -319 -29 -47 -56 -86
-60 -86 -4 0 -47 14 -97 31 -141 48 -222 37 -265 -38 -23 -39 -179 -515 -179
-544 1 -32 32 -100 57 -121 10 -10 68 -35 129 -55 93 -32 109 -41 106 -58 -8
-67 -12 -362 -5 -425 l8 -75 45 3 c25 1 59 5 76 7 l31 5 -1 188 c0 103 1 228
4 279 4 81 3 95 -16 119 -33 45 -66 64 -170 98 -65 22 -99 38 -98 47 1 14 135
430 141 438 2 3 55 -13 118 -34 104 -35 118 -37 153 -27 57 17 84 43 132 124
63 106 139 213 218 305 133 153 134 182 20 340 -51 72 -58 87 -47 98 24 24
359 265 368 265 4 0 38 -41 75 -91 53 -72 76 -94 112 -111 55 -24 85 -20 181
24 95 43 250 95 367 123 102 24 135 41 170 89 18 24 21 45 24 152 l4 124 239
0 239 0 0 -115 c0 -184 25 -218 187 -255 125 -29 246 -68 367 -119 158 -68
202 -56 303 83 36 50 67 93 69 95 5 5 384 -272 384 -281 0 -4 -27 -45 -60 -90
-95 -129 -102 -188 -32 -272 20 -25 67 -81 104 -125 36 -45 95 -127 130 -183
79 -128 113 -163 167 -178 39 -10 53 -8 145 20 55 18 107 33 115 33 11 2 36
-62 88 -222 40 -123 72 -225 70 -226 -1 -1 -47 -17 -102 -35 -121 -40 -152
-60 -177 -116 -17 -40 -18 -52 -7 -151 7 -65 9 -169 6 -260 l-6 -152 32 -5
c18 -3 53 -8 79 -11 l46 -6 7 98 c7 81 2 332 -8 408 -2 17 14 25 106 56 60 21
120 48 134 61 30 27 53 77 53 115 0 15 -37 142 -82 282 -92 282 -107 309 -187
331 -38 10 -53 8 -148 -20 -57 -17 -110 -33 -116 -36 -7 -2 -34 33 -61 78 -54
92 -199 289 -240 327 -14 14 -26 29 -26 34 0 5 27 47 61 93 33 46 65 99 70
117 13 45 2 102 -28 137 -31 37 -413 317 -459 336 -82 34 -141 5 -229 -115
-37 -50 -72 -91 -79 -91 -7 0 -42 13 -77 29 -88 39 -228 85 -342 112 l-95 23
-4 127 c-3 138 -10 157 -72 203 -26 20 -42 21 -314 23 -224 2 -294 0 -317 -11z"/>
<path d="M2335 4304 c-408 -55 -755 -230 -1042 -526 -274 -284 -438 -636 -483
-1033 -16 -143 -8 -410 12 -431 4 -3 40 0 82 6 l76 13 -8 41 c-4 22 -7 115 -6
206 1 251 46 449 154 675 202 421 598 745 1043 854 163 39 212 45 397 45 151
0 205 -4 295 -22 663 -132 1159 -634 1281 -1297 20 -104 27 -421 12 -476 -8
-26 -7 -27 69 -38 42 -6 78 -9 82 -6 9 10 20 136 20 240 3 616 -326 1197 -859
1517 -333 200 -742 284 -1125 232z"/>
<path d="M1695 3586 c-41 -18 -83 -69 -90 -109 -3 -18 -5 -190 -3 -384 3 -337
4 -353 24 -379 36 -49 70 -67 133 -72 l59 -4 -29 -107 c-35 -130 -36 -155 -4
-186 47 -48 65 -39 283 135 l200 160 65 0 66 0 3 -149 c3 -163 8 -178 72 -225
25 -19 43 -21 244 -24 l216 -3 199 -160 c217 -173 235 -182 282 -134 32 31 31
55 -4 186 l-29 107 59 4 c63 5 97 23 133 72 20 27 21 39 21 406 0 367 -1 379
-21 406 -50 68 -53 69 -304 72 l-229 3 -3 149 c-3 162 -8 177 -72 224 -27 21
-39 21 -634 23 -489 2 -613 0 -637 -11z m1185 -265 l0 -120 -189 -3 c-173 -3
-192 -5 -217 -24 -64 -47 -69 -62 -72 -225 l-3 -149 -93 0 -94 0 -112 -90
c-62 -50 -115 -88 -118 -86 -2 3 1 19 7 37 18 51 13 87 -14 114 -22 23 -32 25
-120 25 l-95 0 0 320 0 320 560 0 560 0 0 -119z m560 -601 l0 -320 -95 0 c-88
0 -98 -2 -120 -25 -27 -26 -30 -50 -14 -108 6 -22 9 -41 6 -43 -2 -2 -55 36
-117 86 l-112 90 -214 0 -214 0 0 320 0 320 440 0 440 0 0 -320z"/>
<path d="M858 2070 c-66 -17 -159 -70 -208 -119 -171 -171 -170 -450 2 -622
l46 -46 -79 -6 c-151 -10 -269 -89 -337 -225 l-37 -76 -3 -448 -3 -448 81 0
80 0 0 416 c0 298 3 428 12 458 16 55 99 138 154 154 52 15 871 17 924 2 19
-5 136 -77 260 -159 l225 -149 225 -31 c309 -43 280 -34 280 -87 l0 -44 -230
0 -230 0 -240 120 c-132 66 -251 120 -265 120 -14 0 -37 -11 -50 -25 l-25 -24
0 -376 0 -375 80 0 80 0 0 295 0 295 190 -95 190 -95 580 0 580 0 190 95 190
95 0 -295 0 -295 80 0 80 0 0 375 0 376 -25 24 c-13 14 -36 25 -50 25 -14 0
-133 -54 -265 -120 l-240 -120 -230 0 -230 0 0 45 c0 42 1 44 33 49 17 3 131
20 252 37 l220 30 225 149 c124 81 243 153 265 160 28 8 169 10 475 8 427 -3
436 -3 476 -25 53 -28 107 -91 122 -142 8 -26 12 -168 12 -455 l0 -416 80 0
81 0 -3 448 -3 447 -32 67 c-66 141 -188 225 -341 235 l-80 6 46 46 c218 219
155 575 -126 709 -74 35 -82 37 -182 37 -100 0 -108 -2 -182 -37 -282 -134
-344 -491 -125 -710 l48 -48 -130 0 c-184 0 -206 -9 -466 -179 l-215 -141
-265 -40 -265 -40 -265 40 -266 40 -196 132 c-273 182 -273 182 -460 186
l-152 4 47 47 c217 218 155 576 -123 708 -65 31 -88 36 -163 39 -48 2 -104 -1
-124 -6z m192 -166 c103 -31 190 -151 190 -263 0 -151 -130 -281 -281 -281
-112 0 -232 87 -263 190 -33 111 -10 206 69 285 78 79 174 102 285 69z m3200
0 c103 -31 190 -151 190 -263 0 -151 -130 -281 -281 -281 -112 0 -232 87 -263
190 -33 111 -10 206 69 285 78 79 174 102 285 69z"/>
<path d="M2480 1440 l0 -160 80 0 80 0 0 160 0 160 -80 0 -80 0 0 -160z"/>
<path d="M2095 1449 c-22 -17 -49 -37 -59 -44 -18 -13 -13 -21 75 -140 54 -72
99 -123 106 -121 22 9 113 80 113 89 0 11 -179 247 -188 247 -4 0 -25 -14 -47
-31z"/>
<path d="M2886 1365 c-48 -64 -89 -121 -91 -128 -4 -10 102 -97 118 -97 8 0
180 233 181 246 1 12 -99 94 -115 94 -3 0 -46 -52 -93 -115z"/>
<path d="M560 480 l0 -400 80 0 80 0 0 400 0 400 -80 0 -80 0 0 -400z"/>
<path d="M4400 480 l0 -400 80 0 80 0 0 400 0 400 -80 0 -80 0 0 -400z"/>
</g>
</svg>
