<?xml version="1.0" standalone="no"?>
<!DOCTYPE svg PUBLIC "-//W3C//DTD SVG 20010904//EN"
 "http://www.w3.org/TR/2001/REC-SVG-20010904/DTD/svg10.dtd">
<svg version="1.0" xmlns="http://www.w3.org/2000/svg"
 width="512.000000pt" height="512.000000pt" viewBox="0 0 512.000000 512.000000"
 preserveAspectRatio="xMidYMid meet">

<g transform="translate(0.000000,512.000000) scale(0.100000,-0.100000)"
   fill="#5c0000" stroke="none">
<path d="M3736 5019 c-39 -31 -37 -88 5 -123 l31 -26 -1507 0 c-1641 0 -1563
3 -1585 -55 -7 -18 -9 -690 -8 -1967 l3 -1940 28 -24 c34 -29 67 -31 98 -5
l24 19 5 1904 5 1903 1469 3 1470 2 -32 -33 c-42 -43 -44 -96 -6 -126 50 -39
64 -33 226 96 168 133 168 146 3 276 -162 128 -179 135 -229 96z"/>
<path d="M1142 4450 c-18 -11 -41 -34 -52 -52 -20 -33 -20 -55 -20 -1839 l0
-1806 23 -34 c12 -19 38 -42 57 -51 33 -17 121 -18 1410 -18 1289 0 1377 1
1410 18 19 9 45 32 57 51 l23 34 0 1602 0 1602 -29 39 c-48 65 -444 452 -474
463 -19 8 -396 11 -1200 11 -1152 0 -1173 0 -1205 -20z m2298 -325 c0 -275 -6
-268 263 -273 l187 -4 0 -1519 0 -1519 -1330 0 -1330 0 0 1750 0 1750 1105 0
1105 0 0 -185z m330 -107 c0 -5 -38 -8 -85 -8 l-85 0 0 92 0 93 85 -85 c47
-47 85 -88 85 -92z"/>
<path d="M2425 4166 c-121 -29 -248 -113 -322 -211 -83 -110 -117 -210 -117
-350 0 -83 5 -114 27 -178 61 -177 186 -303 363 -369 86 -32 282 -32 368 0 83
30 159 78 218 136 195 192 229 493 82 724 -77 119 -210 215 -345 247 -76 17
-204 18 -274 1z m318 -189 c315 -156 309 -599 -10 -750 -63 -30 -76 -32 -173
-32 -97 0 -110 2 -173 32 -346 164 -317 645 48 776 38 13 73 17 141 14 82 -2
99 -7 167 -40z"/>
<path d="M2505 3975 c-14 -13 -25 -33 -25 -43 0 -12 -9 -22 -23 -26 -30 -7
-87 -64 -103 -103 -20 -47 -17 -117 6 -163 27 -53 78 -85 173 -109 80 -20 107
-34 107 -56 0 -15 -43 -35 -76 -35 -34 0 -84 27 -84 46 0 26 -47 64 -80 64
-38 0 -80 -39 -80 -75 0 -54 59 -134 123 -167 15 -7 35 -29 45 -48 32 -65 112
-66 144 -1 10 21 31 40 55 51 100 46 139 148 94 246 -27 59 -78 93 -184 124
-97 28 -119 49 -81 77 36 26 74 16 117 -32 30 -34 48 -45 69 -45 41 0 63 14
78 50 11 27 10 36 -12 78 -16 31 -40 58 -73 80 -27 18 -55 46 -61 62 -23 54
-88 67 -129 25z"/>
<path d="M3172 3117 c-44 -47 -20 -118 46 -134 l33 -8 -190 -173 c-104 -94
-193 -172 -196 -172 -4 0 -143 59 -310 130 -167 72 -312 130 -323 130 -23 0
-675 -492 -705 -532 -34 -46 5 -118 64 -118 30 0 45 10 401 282 136 103 253
188 260 188 8 0 151 -59 318 -131 254 -109 309 -129 332 -122 15 4 117 90 227
191 110 100 203 182 206 182 3 0 5 -7 5 -15 0 -27 47 -65 80 -65 56 0 73 30
103 181 29 145 27 177 -12 198 -11 7 -83 11 -169 11 -142 0 -149 -1 -170 -23z"/>
<path d="M3326 2699 l-26 -20 0 -779 c0 -751 1 -779 19 -801 19 -23 24 -24
200 -27 l181 -3 30 30 30 30 -2 776 -3 777 -24 19 c-21 17 -41 19 -201 19
-164 0 -179 -2 -204 -21z m274 -804 l0 -665 -70 0 -70 0 0 665 0 665 70 0 70
0 0 -665z"/>
<path d="M2030 2300 c-20 -20 -20 -33 -20 -599 0 -555 1 -580 19 -602 19 -23
24 -24 200 -27 l181 -3 30 30 30 29 0 570 c0 561 0 570 -21 596 l-20 26 -190
0 c-176 0 -190 -1 -209 -20z m280 -605 l0 -465 -70 0 -70 0 0 465 0 465 70 0
70 0 0 -465z"/>
<path d="M2680 2091 l-30 -29 0 -467 0 -467 30 -29 30 -30 181 3 c176 3 181 4
200 27 18 22 19 46 19 496 0 450 -1 474 -19 496 -19 23 -24 24 -200 27 l-181
3 -30 -30z m270 -496 l0 -365 -70 0 -70 0 0 365 0 365 70 0 70 0 0 -365z"/>
<path d="M1385 1785 l-25 -24 0 -316 0 -317 30 -29 30 -30 181 3 c176 3 181 4
200 27 18 22 19 43 19 345 0 310 -1 323 -20 344 -20 21 -28 22 -206 22 -183 0
-185 0 -209 -25z m275 -345 l0 -210 -70 0 -70 0 0 210 0 210 70 0 70 0 0 -210z"/>
<path d="M4316 4239 l-26 -20 -2 -1902 -3 -1902 -1469 -3 -1470 -2 32 33 c42
43 44 96 6 126 -42 33 -67 26 -161 -46 -186 -140 -204 -161 -188 -213 6 -19
214 -193 262 -219 32 -16 57 -14 87 10 36 29 36 82 -1 121 l-27 28 1502 0
c1638 0 1560 -3 1582 55 7 18 9 690 8 1967 l-3 1940 -28 24 c-34 29 -66 31
-101 3z"/>
</g>
</svg>
