<?xml version="1.0" standalone="no"?>
<!DOCTYPE svg PUBLIC "-//W3C//DTD SVG 20010904//EN"
 "http://www.w3.org/TR/2001/REC-SVG-20010904/DTD/svg10.dtd">
<svg version="1.0" xmlns="http://www.w3.org/2000/svg"
 width="512.000000pt" height="512.000000pt" viewBox="0 0 512.000000 512.000000"
 preserveAspectRatio="xMidYMid meet">

<g transform="translate(0.000000,512.000000) scale(0.100000,-0.100000)"
   fill="#5c0000" stroke="none">
<path d="M2041 4565 l-440 -295 -376 0 -376 0 -24 -25 -25 -24 0 -1066 0
-1066 25 -24 24 -25 1659 0 1659 0 27 21 26 20 0 1074 0 1074 -26 20 c-26 20
-38 21 -398 21 l-371 0 -442 295 c-336 224 -450 295 -473 295 -23 0 -135 -70
-469 -295z m792 -80 l322 -215 -645 0 -645 0 320 214 c176 118 321 215 323
215 1 1 147 -96 325 -214z m1237 -1330 l0 -965 -1560 0 -1560 0 0 965 0 965
1560 0 1560 0 0 -965z"/>
<path d="M1120 3950 c-20 -20 -20 -33 -20 -794 0 -747 1 -775 19 -797 l19 -24
1371 0 1370 0 23 23 23 23 3 742 c2 408 0 757 -3 775 -3 18 -15 42 -26 53 -19
19 -45 19 -1389 19 -1357 0 -1370 0 -1390 -20z m2650 -491 l0 -361 -206 249
c-266 319 -270 323 -312 323 -24 0 -40 -8 -60 -30 -15 -16 -211 -252 -437
-524 -225 -272 -413 -494 -417 -493 -4 1 -158 170 -343 374 -209 232 -344 375
-359 379 -13 3 -35 0 -48 -8 -14 -7 -91 -87 -173 -178 -81 -91 -152 -169 -156
-174 -5 -6 -9 166 -9 397 l0 407 1260 0 1260 0 0 -361z m-241 -304 l241 -289
0 -188 0 -188 -659 0 c-384 0 -662 4 -665 9 -3 5 177 228 400 496 394 473 407
487 424 469 10 -11 127 -149 259 -309z m-1692 -203 c116 -130 257 -288 313
-349 l101 -113 -500 0 -501 0 0 148 1 147 182 202 c100 111 184 202 187 202 3
0 100 -107 217 -237z"/>
<path d="M2307 3665 c-97 -25 -156 -96 -164 -196 -4 -57 -2 -70 24 -119 108
-205 413 -129 413 104 0 145 -132 248 -273 211z m111 -172 c59 -65 -40 -152
-105 -91 -37 35 -26 99 20 118 30 12 58 3 85 -27z"/>
<path d="M1359 1875 c-159 -51 -270 -218 -256 -384 7 -90 44 -169 106 -231 49
-49 137 -100 174 -100 10 0 15 -4 12 -10 -3 -5 -17 -10 -30 -10 -51 0 -185
-52 -256 -99 -134 -88 -224 -204 -274 -352 -24 -72 -28 -105 -33 -229 -4 -143
-4 -146 19 -173 l24 -27 1065 0 c586 0 1336 0 1667 0 l602 0 22 23 c20 21 21
29 17 172 -4 131 -8 160 -33 234 -79 233 -274 403 -510 446 -38 7 -63 15 -55
18 124 42 172 73 226 144 84 110 97 261 36 386 -38 77 -101 138 -180 175 -49
23 -70 27 -152 27 -82 0 -103 -4 -152 -27 -74 -34 -146 -107 -183 -183 -26
-53 -29 -71 -30 -155 0 -82 4 -103 26 -150 37 -79 99 -144 171 -179 34 -17 69
-31 79 -31 10 0 21 -5 24 -10 4 -6 -6 -10 -24 -10 -48 0 -180 -46 -250 -87
-36 -21 -90 -63 -122 -93 l-57 -56 -68 66 c-80 75 -184 132 -289 156 -38 10
-77 19 -85 21 -8 2 8 12 37 22 100 34 170 98 221 201 23 48 26 67 26 150 0 84
-3 102 -29 155 -37 76 -109 149 -183 183 -49 23 -70 27 -152 27 -87 0 -101 -3
-161 -32 -79 -39 -140 -102 -177 -181 -23 -49 -27 -70 -27 -152 0 -82 4 -103
27 -152 14 -31 45 -77 68 -102 42 -45 146 -106 182 -106 10 0 18 -4 18 -10 0
-5 -13 -10 -28 -10 -89 0 -262 -85 -356 -173 l-65 -62 -70 66 c-80 76 -199
140 -296 160 -69 14 -103 28 -69 29 38 0 141 60 184 106 23 25 54 71 68 102
23 49 27 70 27 152 0 87 -3 101 -32 161 -63 128 -176 200 -318 206 -51 2 -97
-3 -126 -12z m212 -162 c74 -38 111 -93 117 -172 5 -72 -10 -121 -51 -168 -85
-97 -251 -97 -331 -2 -40 47 -56 90 -56 151 0 167 169 267 321 191z m1040 -1
c126 -66 157 -230 64 -339 -83 -98 -239 -101 -326 -6 -48 51 -61 90 -57 164 5
89 39 142 117 182 73 36 131 36 202 -1z m1010 17 c157 -48 202 -266 76 -376
-47 -41 -96 -56 -167 -51 -149 11 -242 166 -181 303 29 65 46 83 106 111 55
26 108 30 166 13z m-2032 -744 c229 -54 383 -245 398 -492 l6 -93 -522 0 -521
0 0 68 c0 146 54 277 155 377 131 130 308 181 484 140z m1040 0 c82 -20 171
-67 235 -126 80 -73 82 -81 50 -174 -19 -58 -28 -109 -32 -183 l-5 -102 -366
2 -366 3 -6 105 c-5 76 -14 126 -33 183 l-28 78 36 44 c120 146 327 214 515
170z m1034 0 c235 -50 407 -266 407 -512 l0 -73 -517 2 -518 3 2 80 c2 94 15
148 56 230 40 82 80 130 149 181 123 90 269 121 421 89z"/>
</g>
</svg>
