<?xml version="1.0" encoding="UTF-8"?>
<!DOCTYPE svg PUBLIC "-//W3C//DTD SVG 1.1//EN" "http://www.w3.org/Graphics/SVG/1.1/DTD/svg11.dtd">
<svg xmlns="http://www.w3.org/2000/svg" xml:space="preserve" width="512px" height="512px" version="1.1"
     viewBox="0 0 512 512"
     fill="#5c0000"
     >
   <g>
    <path d="M246 461c-21,0 -40,-20 -53,-57 -13,-35 -20,-81 -20,-129 0,-48 7,-94 20,-128 14,-37 32,-57 53,-57 21,0 40,20 53,57 13,34 20,80 20,128 0,49 -7,95 -20,129 -13,37 -32,57 -53,57zm0 -357c-28,0 -59,70 -59,171 0,101 31,172 59,172 28,0 59,-69 59,-172 0,-102 -31,-171 -59,-171z"/>
   </g>
 <g>
    <path d="M246 348c-48,0 -94,-7 -128,-20 -37,-13 -57,-32 -57,-53 0,-14 11,-28 31,-40 3,-2 7,-1 9,3 2,3 1,7 -2,9 -15,9 -24,19 -24,28 0,29 69,59 171,59 37,0 68,-3 93,-10 4,-1 8,2 9,5 1,4 -2,8 -5,9 -26,7 -59,10 -97,10zm104 -119c-1,0 -1,0 -2,0 -30,-9 -65,-13 -102,-13 -30,0 -58,4 -76,7 -4,1 -7,-2 -8,-6 -1,-4 2,-7 6,-8 18,-3 47,-7 78,-7 38,0 74,5 106,13 4,1 6,5 5,9 -1,3 -4,5 -7,5z"/>
   </g>
 <g>
    <path d="M125 192c-3,0 -5,-2 -6,-4l-36 -90c-2,-4 0,-8 3,-10 4,-1 8,1 10,4l36 90c1,4 -1,8 -4,9 -1,1 -2,1 -3,1z"/>
   </g>
 <g>
    <path d="M53 192c-1,0 -2,0 -3,-1 -3,-1 -5,-5 -3,-9l36 -90c1,-3 5,-5 9,-4 3,2 5,6 4,10l-36 90c-2,2 -4,4 -7,4z"/>
   </g>
 <g>
    <path d="M112 159l-46 0c-4,0 -7,-3 -7,-7 0,-4 3,-7 7,-7l46 0c4,0 7,3 7,7 0,4 -3,7 -7,7z"/>
   </g>
 <g>
    <path d="M106 256c-2,0 -3,-1 -4,-2l-32 -25 -50 0c-11,0 -20,-9 -20,-20l0 -138c0,-11 9,-20 20,-20l138 0c11,0 20,9 20,20l0 138c0,11 -9,20 -20,20l-45 0 0 20c0,3 -2,5 -4,6 -1,1 -2,1 -3,1zm-86 -191c-3,0 -6,3 -6,6l0 138c0,3 3,6 6,6l52 0c2,0 3,0 4,2l23 18 0 -13c0,-4 3,-7 7,-7l52 0c3,0 6,-3 6,-6l0 -138c0,-3 -3,-6 -6,-6l-138 0z"/>
   </g>
 <g>
    <path d="M406 419c-1,0 -2,0 -3,-1 -2,-1 -4,-3 -4,-6l0 -20 -45 0c-11,0 -20,-9 -20,-20l0 -138c0,-11 9,-20 20,-20l138 0c11,0 20,9 20,20l0 138c0,11 -9,20 -20,20l-50 0 -32 25c-1,1 -2,2 -4,2zm-52 -191c-3,0 -6,3 -6,6l0 138c0,3 3,6 6,6l52 0c4,0 7,3 7,7l0 12 23 -18c1,-1 2,-1 4,-1l52 0c3,0 6,-3 6,-6l0 -138c0,-3 -3,-6 -6,-6l-138 0z"/>
   </g>
 <g>
    <path d="M464 285l-82 0c-4,0 -7,-3 -7,-7 0,-4 3,-7 7,-7l82 0c4,0 7,3 7,7 0,4 -3,7 -7,7z"/>
   </g>
 <g>
    <path d="M394 354c-3,0 -5,-1 -6,-4 -2,-3 -1,-7 3,-9 39,-22 48,-64 48,-64 1,-4 4,-7 8,-6 4,1 6,4 6,8 -1,2 -10,49 -56,74 -1,1 -2,1 -3,1z"/>
   </g>
 <g>
    <path d="M452 354c-1,0 -2,0 -3,-1 -46,-25 -56,-72 -56,-74 -1,-3 2,-7 6,-8 3,-1 7,2 8,6l0 0c0,0 9,42 48,64 4,2 5,6 3,9 -1,3 -4,4 -6,4z"/>
   </g>
 <g>
    <path d="M246 461c-102,0 -185,-83 -185,-186 0,-15 2,-32 7,-52 1,-4 5,-6 9,-5 3,1 6,5 5,9 -5,18 -7,34 -7,48 0,95 77,172 171,172 54,0 103,-24 135,-66 3,-3 7,-4 10,-2 3,3 4,7 1,10 -34,46 -88,72 -146,72zm170 -233c-3,0 -6,-2 -7,-5 -22,-71 -88,-119 -163,-119 -25,0 -49,6 -72,16 -4,2 -8,0 -9,-3 -2,-3 -1,-8 3,-9 25,-12 51,-18 78,-18 81,0 152,52 177,129 1,4 -1,8 -5,9 -1,0 -1,0 -2,0z"/>
   </g>
 <g>
    <path d="M423 285c-4,0 -7,-3 -7,-7l0 -23c0,-4 3,-7 7,-7 4,0 7,3 7,7l0 23c0,4 -3,7 -7,7z"/>
 </g>
</svg>
